<mxfile host="app.diagrams.net" modified="2021-10-13T09:04:32.146Z" agent="5.0 (Macintosh; Intel Mac OS X 10_15_7) AppleWebKit/537.36 (KHTML, like Gecko) Chrome/92.0.4515.131 YaBrowser/21.8.0.1716 Yowser/2.5 Safari/537.36" etag="puW0_8HbRoMKLkJgxWoG" version="15.3.8" type="github">
  <diagram id="5lzJqX7PUWitoMrbVtdH" name="Page-1">
    <mxGraphModel dx="2354" dy="965" grid="1" gridSize="10" guides="1" tooltips="1" connect="1" arrows="1" fold="1" page="1" pageScale="1" pageWidth="827" pageHeight="1169" math="0" shadow="0">
      <root>
        <mxCell id="0" />
        <mxCell id="1" parent="0" />
        <mxCell id="GbD9cIiE20UQnsJc-2Eu-6" style="edgeStyle=orthogonalEdgeStyle;rounded=0;orthogonalLoop=1;jettySize=auto;html=1;entryX=0.5;entryY=0;entryDx=0;entryDy=0;" parent="1" source="GbD9cIiE20UQnsJc-2Eu-1" target="GbD9cIiE20UQnsJc-2Eu-2" edge="1">
          <mxGeometry relative="1" as="geometry">
            <Array as="points">
              <mxPoint x="380" y="60" />
            </Array>
          </mxGeometry>
        </mxCell>
        <mxCell id="GbD9cIiE20UQnsJc-2Eu-1" value="&lt;p&gt;&lt;font face=&quot;Verdana&quot;&gt;Index.js&lt;/font&gt;&lt;/p&gt;" style="rounded=1;whiteSpace=wrap;html=1;" parent="1" vertex="1">
          <mxGeometry x="40" y="40" width="120" height="40" as="geometry" />
        </mxCell>
        <mxCell id="GbD9cIiE20UQnsJc-2Eu-5" value="" style="edgeStyle=orthogonalEdgeStyle;rounded=0;orthogonalLoop=1;jettySize=auto;html=1;" parent="1" source="GbD9cIiE20UQnsJc-2Eu-2" target="GbD9cIiE20UQnsJc-2Eu-3" edge="1">
          <mxGeometry relative="1" as="geometry" />
        </mxCell>
        <mxCell id="GbD9cIiE20UQnsJc-2Eu-2" value="&lt;p&gt;&lt;font face=&quot;Verdana&quot;&gt;&amp;lt;App&amp;gt;&lt;/font&gt;&lt;/p&gt;" style="rounded=1;whiteSpace=wrap;html=1;" parent="1" vertex="1">
          <mxGeometry x="320" y="80" width="120" height="40" as="geometry" />
        </mxCell>
        <mxCell id="GbD9cIiE20UQnsJc-2Eu-10" style="edgeStyle=orthogonalEdgeStyle;rounded=0;orthogonalLoop=1;jettySize=auto;html=1;exitX=0.25;exitY=1;exitDx=0;exitDy=0;entryX=0.5;entryY=0;entryDx=0;entryDy=0;" parent="1" source="GbD9cIiE20UQnsJc-2Eu-3" target="GbD9cIiE20UQnsJc-2Eu-8" edge="1">
          <mxGeometry relative="1" as="geometry" />
        </mxCell>
        <mxCell id="GbD9cIiE20UQnsJc-2Eu-11" style="edgeStyle=orthogonalEdgeStyle;rounded=0;orthogonalLoop=1;jettySize=auto;html=1;exitX=0.5;exitY=1;exitDx=0;exitDy=0;entryX=0.5;entryY=0;entryDx=0;entryDy=0;" parent="1" source="GbD9cIiE20UQnsJc-2Eu-3" target="GbD9cIiE20UQnsJc-2Eu-9" edge="1">
          <mxGeometry relative="1" as="geometry" />
        </mxCell>
        <mxCell id="GbD9cIiE20UQnsJc-2Eu-16" style="edgeStyle=orthogonalEdgeStyle;rounded=0;orthogonalLoop=1;jettySize=auto;html=1;exitX=0.75;exitY=1;exitDx=0;exitDy=0;" parent="1" source="GbD9cIiE20UQnsJc-2Eu-3" target="GbD9cIiE20UQnsJc-2Eu-13" edge="1">
          <mxGeometry relative="1" as="geometry" />
        </mxCell>
        <mxCell id="GbD9cIiE20UQnsJc-2Eu-20" style="edgeStyle=orthogonalEdgeStyle;rounded=0;orthogonalLoop=1;jettySize=auto;html=1;exitX=0.5;exitY=1;exitDx=0;exitDy=0;" parent="1" source="GbD9cIiE20UQnsJc-2Eu-3" target="GbD9cIiE20UQnsJc-2Eu-12" edge="1">
          <mxGeometry relative="1" as="geometry" />
        </mxCell>
        <mxCell id="GbD9cIiE20UQnsJc-2Eu-3" value="&lt;p&gt;&lt;font face=&quot;Verdana&quot;&gt;&amp;lt;BrowserRouter&amp;gt;&lt;/font&gt;&lt;/p&gt;" style="rounded=1;whiteSpace=wrap;html=1;" parent="1" vertex="1">
          <mxGeometry x="320" y="160" width="120" height="40" as="geometry" />
        </mxCell>
        <mxCell id="GbD9cIiE20UQnsJc-2Eu-8" value="&lt;p&gt;&lt;font face=&quot;Verdana&quot;&gt;&amp;lt;Navbar&amp;gt;&lt;/font&gt;&lt;/p&gt;" style="rounded=1;whiteSpace=wrap;html=1;" parent="1" vertex="1">
          <mxGeometry x="-120" y="240" width="120" height="40" as="geometry" />
        </mxCell>
        <mxCell id="GbD9cIiE20UQnsJc-2Eu-9" value="&lt;p&gt;&lt;font face=&quot;Verdana&quot;&gt;&amp;lt;Header&amp;gt;&lt;/font&gt;&lt;/p&gt;" style="rounded=1;whiteSpace=wrap;html=1;" parent="1" vertex="1">
          <mxGeometry x="120" y="240" width="120" height="40" as="geometry" />
        </mxCell>
        <mxCell id="GbD9cIiE20UQnsJc-2Eu-23" style="edgeStyle=orthogonalEdgeStyle;rounded=0;orthogonalLoop=1;jettySize=auto;html=1;exitX=0.5;exitY=1;exitDx=0;exitDy=0;" parent="1" source="GbD9cIiE20UQnsJc-2Eu-12" target="GbD9cIiE20UQnsJc-2Eu-17" edge="1">
          <mxGeometry relative="1" as="geometry">
            <Array as="points">
              <mxPoint x="580" y="300" />
              <mxPoint x="500" y="300" />
            </Array>
          </mxGeometry>
        </mxCell>
        <mxCell id="GbD9cIiE20UQnsJc-2Eu-24" style="edgeStyle=orthogonalEdgeStyle;rounded=0;orthogonalLoop=1;jettySize=auto;html=1;exitX=0.5;exitY=1;exitDx=0;exitDy=0;entryX=0.5;entryY=0;entryDx=0;entryDy=0;" parent="1" source="GbD9cIiE20UQnsJc-2Eu-12" target="GbD9cIiE20UQnsJc-2Eu-18" edge="1">
          <mxGeometry relative="1" as="geometry" />
        </mxCell>
        <mxCell id="GbD9cIiE20UQnsJc-2Eu-12" value="&lt;p&gt;&lt;font face=&quot;Verdana&quot;&gt;&amp;lt;Dialogs&amp;gt;&lt;/font&gt;&lt;/p&gt;" style="rounded=1;whiteSpace=wrap;html=1;" parent="1" vertex="1">
          <mxGeometry x="520" y="240" width="120" height="40" as="geometry" />
        </mxCell>
        <mxCell id="GbD9cIiE20UQnsJc-2Eu-25" style="edgeStyle=orthogonalEdgeStyle;rounded=0;orthogonalLoop=1;jettySize=auto;html=1;exitX=0.5;exitY=1;exitDx=0;exitDy=0;entryX=0.5;entryY=0;entryDx=0;entryDy=0;" parent="1" source="GbD9cIiE20UQnsJc-2Eu-13" target="GbD9cIiE20UQnsJc-2Eu-21" edge="1">
          <mxGeometry relative="1" as="geometry" />
        </mxCell>
        <mxCell id="GbD9cIiE20UQnsJc-2Eu-26" style="edgeStyle=orthogonalEdgeStyle;rounded=0;orthogonalLoop=1;jettySize=auto;html=1;exitX=0.5;exitY=1;exitDx=0;exitDy=0;entryX=0.5;entryY=0;entryDx=0;entryDy=0;" parent="1" source="GbD9cIiE20UQnsJc-2Eu-13" target="GbD9cIiE20UQnsJc-2Eu-22" edge="1">
          <mxGeometry relative="1" as="geometry" />
        </mxCell>
        <mxCell id="GbD9cIiE20UQnsJc-2Eu-13" value="&lt;p&gt;&lt;font face=&quot;Verdana&quot;&gt;&amp;lt;Profile&amp;gt;&lt;/font&gt;&lt;/p&gt;" style="rounded=1;whiteSpace=wrap;html=1;" parent="1" vertex="1">
          <mxGeometry x="880" y="240" width="120" height="40" as="geometry" />
        </mxCell>
        <mxCell id="GbD9cIiE20UQnsJc-2Eu-14" value="OR" style="text;html=1;align=center;verticalAlign=middle;resizable=0;points=[];autosize=1;strokeColor=none;fillColor=none;" parent="1" vertex="1">
          <mxGeometry x="710" y="250" width="30" height="20" as="geometry" />
        </mxCell>
        <mxCell id="GbD9cIiE20UQnsJc-2Eu-17" value="&lt;p&gt;&lt;font face=&quot;Verdana&quot;&gt;&amp;lt;Dialog&amp;gt;&lt;/font&gt;&lt;/p&gt;" style="rounded=1;whiteSpace=wrap;html=1;" parent="1" vertex="1">
          <mxGeometry x="440" y="320" width="120" height="40" as="geometry" />
        </mxCell>
        <mxCell id="GbD9cIiE20UQnsJc-2Eu-18" value="&lt;p&gt;&lt;font face=&quot;Verdana&quot;&gt;&amp;lt;Message&amp;gt;&lt;/font&gt;&lt;/p&gt;" style="rounded=1;whiteSpace=wrap;html=1;" parent="1" vertex="1">
          <mxGeometry x="600" y="320" width="120" height="40" as="geometry" />
        </mxCell>
        <mxCell id="GbD9cIiE20UQnsJc-2Eu-21" value="&lt;p&gt;&lt;font face=&quot;Verdana&quot;&gt;&amp;lt;ProfileInfo&amp;gt;&lt;/font&gt;&lt;/p&gt;" style="rounded=1;whiteSpace=wrap;html=1;" parent="1" vertex="1">
          <mxGeometry x="800" y="320" width="120" height="40" as="geometry" />
        </mxCell>
        <mxCell id="GbD9cIiE20UQnsJc-2Eu-31" style="edgeStyle=orthogonalEdgeStyle;rounded=0;orthogonalLoop=1;jettySize=auto;html=1;exitX=0.5;exitY=1;exitDx=0;exitDy=0;entryX=0.5;entryY=0;entryDx=0;entryDy=0;" parent="1" source="GbD9cIiE20UQnsJc-2Eu-22" target="GbD9cIiE20UQnsJc-2Eu-27" edge="1">
          <mxGeometry relative="1" as="geometry" />
        </mxCell>
        <mxCell id="p1yW6jSmRvIg3PuUc1mQ-11" style="edgeStyle=orthogonalEdgeStyle;rounded=0;orthogonalLoop=1;jettySize=auto;html=1;exitX=0.25;exitY=1;exitDx=0;exitDy=0;entryX=0.25;entryY=1;entryDx=0;entryDy=0;" edge="1" parent="1" source="GbD9cIiE20UQnsJc-2Eu-22" target="p1yW6jSmRvIg3PuUc1mQ-2">
          <mxGeometry relative="1" as="geometry">
            <Array as="points">
              <mxPoint x="990" y="410" />
              <mxPoint x="-130" y="410" />
            </Array>
          </mxGeometry>
        </mxCell>
        <mxCell id="p1yW6jSmRvIg3PuUc1mQ-17" value="&lt;font style=&quot;font-size: 14px&quot;&gt;dispatch(addPostActionCreator()) ; dispatch(updateNewPostActionCreator(text))&lt;/font&gt;" style="edgeLabel;html=1;align=center;verticalAlign=middle;resizable=0;points=[];" vertex="1" connectable="0" parent="p1yW6jSmRvIg3PuUc1mQ-11">
          <mxGeometry x="-0.1182" y="1" relative="1" as="geometry">
            <mxPoint as="offset" />
          </mxGeometry>
        </mxCell>
        <mxCell id="GbD9cIiE20UQnsJc-2Eu-22" value="&lt;p&gt;&lt;font face=&quot;Verdana&quot;&gt;&amp;lt;MyPosts&amp;gt;&lt;/font&gt;&lt;/p&gt;" style="rounded=1;whiteSpace=wrap;html=1;" parent="1" vertex="1">
          <mxGeometry x="960" y="320" width="120" height="40" as="geometry" />
        </mxCell>
        <mxCell id="GbD9cIiE20UQnsJc-2Eu-27" value="&lt;p&gt;&lt;br&gt;&lt;/p&gt;" style="rounded=1;whiteSpace=wrap;html=1;" parent="1" vertex="1">
          <mxGeometry x="1000" y="400" width="40" height="40" as="geometry" />
        </mxCell>
        <mxCell id="GbD9cIiE20UQnsJc-2Eu-28" value="&lt;p&gt;&lt;br&gt;&lt;/p&gt;" style="rounded=1;whiteSpace=wrap;html=1;" parent="1" vertex="1">
          <mxGeometry x="1010" y="410" width="40" height="40" as="geometry" />
        </mxCell>
        <mxCell id="GbD9cIiE20UQnsJc-2Eu-29" value="&lt;p&gt;&lt;font face=&quot;Verdana&quot;&gt;&amp;lt;Post&amp;gt;&lt;/font&gt;&lt;/p&gt;" style="rounded=1;whiteSpace=wrap;html=1;" parent="1" vertex="1">
          <mxGeometry x="1020" y="420" width="40" height="40" as="geometry" />
        </mxCell>
        <mxCell id="p1yW6jSmRvIg3PuUc1mQ-3" style="edgeStyle=orthogonalEdgeStyle;rounded=0;orthogonalLoop=1;jettySize=auto;html=1;entryX=0;entryY=0.5;entryDx=0;entryDy=0;" edge="1" parent="1" source="p1yW6jSmRvIg3PuUc1mQ-2" target="GbD9cIiE20UQnsJc-2Eu-1">
          <mxGeometry relative="1" as="geometry" />
        </mxCell>
        <mxCell id="p1yW6jSmRvIg3PuUc1mQ-2" value="&lt;p&gt;&lt;font face=&quot;Verdana&quot;&gt;&lt;b&gt;STORE.JS&lt;/b&gt;&lt;/font&gt;&lt;/p&gt;&lt;p&gt;&lt;font face=&quot;Verdana&quot;&gt;state&lt;/font&gt;&lt;/p&gt;&lt;p&gt;&lt;font face=&quot;Verdana&quot;&gt;subscribe&lt;/font&gt;&lt;/p&gt;&lt;p&gt;&lt;font face=&quot;Verdana&quot;&gt;dispatch&lt;/font&gt;&lt;/p&gt;" style="rounded=1;whiteSpace=wrap;html=1;" vertex="1" parent="1">
          <mxGeometry x="-160" y="10" width="120" height="100" as="geometry" />
        </mxCell>
        <mxCell id="p1yW6jSmRvIg3PuUc1mQ-4" value="&lt;p&gt;&lt;br&gt;&lt;/p&gt;" style="rounded=1;whiteSpace=wrap;html=1;" vertex="1" parent="1">
          <mxGeometry x="-360" y="20" width="50" height="40" as="geometry" />
        </mxCell>
        <mxCell id="p1yW6jSmRvIg3PuUc1mQ-6" value="&lt;p&gt;&lt;br&gt;&lt;/p&gt;" style="rounded=1;whiteSpace=wrap;html=1;" vertex="1" parent="1">
          <mxGeometry x="-350" y="30" width="50" height="40" as="geometry" />
        </mxCell>
        <mxCell id="p1yW6jSmRvIg3PuUc1mQ-8" style="edgeStyle=orthogonalEdgeStyle;rounded=0;orthogonalLoop=1;jettySize=auto;html=1;entryX=0;entryY=0.5;entryDx=0;entryDy=0;" edge="1" parent="1" source="p1yW6jSmRvIg3PuUc1mQ-7" target="p1yW6jSmRvIg3PuUc1mQ-2">
          <mxGeometry relative="1" as="geometry" />
        </mxCell>
        <mxCell id="p1yW6jSmRvIg3PuUc1mQ-10" value="&lt;font style=&quot;font-size: 13px&quot;&gt;addPostActionCreator&lt;/font&gt;" style="edgeStyle=orthogonalEdgeStyle;rounded=0;orthogonalLoop=1;jettySize=auto;html=1;exitX=0.5;exitY=1;exitDx=0;exitDy=0;entryX=0.083;entryY=1;entryDx=0;entryDy=0;entryPerimeter=0;" edge="1" parent="1" source="p1yW6jSmRvIg3PuUc1mQ-7" target="GbD9cIiE20UQnsJc-2Eu-22">
          <mxGeometry relative="1" as="geometry">
            <mxPoint x="580" y="570" as="targetPoint" />
          </mxGeometry>
        </mxCell>
        <mxCell id="p1yW6jSmRvIg3PuUc1mQ-7" value="&lt;p&gt;&lt;font face=&quot;Verdana&quot;&gt;reducer&lt;/font&gt;&lt;/p&gt;" style="rounded=1;whiteSpace=wrap;html=1;" vertex="1" parent="1">
          <mxGeometry x="-340" y="40" width="50" height="40" as="geometry" />
        </mxCell>
      </root>
    </mxGraphModel>
  </diagram>
</mxfile>
